<?xml version="1.0" encoding="iso-8859-1"?>
<!-- Uploaded to: SVG Repo, www.svgrepo.com, Generator: SVG Repo Mixer Tools -->
<svg height="800px" width="800px" version="1.1" id="Layer_1" xmlns="http://www.w3.org/2000/svg" xmlns:xlink="http://www.w3.org/1999/xlink" 
	 viewBox="0 0 502.456 502.456" xml:space="preserve">
<path style="fill:#F26B95;" d="M482.676,153.424c-6.256-14.888-14.104-29.248-23.168-42.648
	c-8.944-13.288-19.296-25.824-30.632-37.168c-11.376-11.368-23.88-21.68-37.192-30.664c-13.424-9.096-27.776-16.864-42.648-23.176
	c-15.2-6.384-31.096-11.344-47.224-14.632C285.276,1.744,268.252,0,251.236,0c-17.04,0-34.056,1.744-50.608,5.136
	c-16.144,3.288-32.024,8.248-47.208,14.632c-14.888,6.312-29.248,14.088-42.696,23.176c-13.28,8.984-25.792,19.296-37.168,30.664
	c-11.344,11.352-21.64,23.88-30.632,37.168c-9.064,13.4-16.88,27.76-23.16,42.648c-6.44,15.184-11.368,31.112-14.688,47.248
	c-3.368,16.496-5.072,33.512-5.072,50.536c0,17.072,1.704,34.088,5.072,50.616c3.32,16.144,8.248,32.024,14.688,47.184
	c6.272,14.872,14.096,29.304,23.16,42.704c8.992,13.296,19.288,25.768,30.632,37.168c11.384,11.336,23.888,21.624,37.168,30.632
	c13.448,9.072,27.808,16.864,42.696,23.152c15.184,6.448,31.072,11.352,47.208,14.64c16.552,3.424,33.568,5.136,50.608,5.136
	c17.016,0,34.04-1.712,50.576-5.136c16.136-3.288,32.024-8.192,47.224-14.64c14.872-6.28,29.224-14.08,42.648-23.152
	c13.312-9.008,25.824-19.296,37.192-30.632c11.336-11.408,21.688-23.872,30.632-37.168c9.064-13.4,16.904-27.832,23.168-42.704
	c6.416-15.168,11.384-31.048,14.688-47.184c3.352-16.528,5.088-33.544,5.088-50.616c0-17.024-1.736-34.04-5.088-50.536
	C494.052,184.536,489.084,168.616,482.676,153.424z M251.228,36.688c54.296,0,103.888,20.264,141.696,53.552
	c-0.536,0.8-31.08,47.312-112.096,77.656c-36.656-67.376-76.968-120.904-80.16-125.168
	C216.852,38.816,233.796,36.688,251.228,36.688z M199.82,42.912c0,0.032-0.04,0.064-0.04,0.064s-0.256,0.064-0.648,0.128
	C199.38,43.04,199.58,43.008,199.82,42.912z M159.668,57.208c2.864,3.816,42.544,57.608,79.696,123.608
	c-103.04,27.376-192.456,26.288-198.096,26.192C55.18,140.552,99.804,85.456,159.668,57.208z M91.636,394.592
	c-34.176-38.024-54.984-88.264-54.984-143.376c0-2.288,0.12-4.528,0.176-6.776c3.816,0.088,109.816,2.488,220.272-30.576
	c6.152,12.032,12.024,24.28,17.416,36.496c-2.832,0.76-5.648,1.608-8.464,2.56C150.284,290.32,91.54,394.472,91.54,394.472
	L91.636,394.592z M251.228,465.784c-50.664,0-97.216-17.6-133.952-47c-0.76-0.592-1.656-1.296-2.76-2.184
	c1.104,0.888,2,1.592,2.76,2.184c1.256,0.976,2.072,1.568,2.072,1.568s41.12-89.688,168.376-134.024
	c0.464-0.168,0.968-0.296,1.448-0.44c30.176,78.424,42.616,144.128,45.816,162.872C309.244,459.712,280.924,465.784,251.228,465.784
	z M371.108,429.16c-2.184-12.944-13.608-75.92-41.768-153.224c69.272-11.08,129.272,7.912,133.712,9.368
	C453.516,345.08,419.26,396.632,371.108,429.16z M316.3,242.056c-1.552-3.664-3.064-7.36-4.656-11.048
	c-4.456-10.512-9.272-20.92-14.256-31.136c84.728-34.584,119.12-84.32,119.52-84.896c30.088,36.528,48.304,83.208,48.808,134.112
	C462.62,248.408,390.012,232.768,316.3,242.056z"/>
<path style="fill:#E64C87;" d="M482.676,153.424c-6.256-14.888-14.104-29.248-23.168-42.648c-2.832-4.208-5.856-8.32-8.96-12.368
	c-9.272,6.936-19.44,13.88-30.44,20.8c28.096,35.888,45.12,80.872,45.6,129.872c-3.096-0.672-75.704-16.312-149.416-7.032
	c-1.552-3.664-3.064-7.36-4.656-11.048c-4.456-10.512-9.272-20.92-14.256-31.136c58.784-23.992,93.296-55.248,109.08-72.352
	c-52.624,31.056-121.328,60.888-198.696,84.344c-48.208,14.624-94.992,25.28-138.192,32.096
	c40.424-1.616,112.936-7.768,187.528-30.096c6.152,12.032,12.024,24.28,17.416,36.496c-2.832,0.76-5.648,1.608-8.464,2.56
	C150.284,290.32,91.54,394.472,91.54,394.472l0.096,0.12c-34.176-38.024-54.984-88.264-54.984-143.376
	c0-0.928,0.048-1.832,0.08-2.752c-12.64,1.48-24.936,2.616-36.72,3.368c0.032,16.856,1.728,33.672,5.056,50
	c3.32,16.144,8.248,32.024,14.688,47.184c6.272,14.872,14.096,29.304,23.16,42.704c8.992,13.296,19.288,25.768,30.632,37.168
	c11.384,11.336,23.888,21.624,37.168,30.632c13.448,9.072,27.808,16.864,42.696,23.152c15.184,6.448,31.072,11.352,47.208,14.64
	c16.552,3.424,33.568,5.136,50.608,5.136c17.016,0,34.04-1.712,50.576-5.136c16.136-3.288,32.024-8.192,47.224-14.64
	c14.872-6.28,29.224-14.08,42.648-23.152c13.312-9.008,25.824-19.296,37.192-30.632c11.336-11.408,21.688-23.872,30.632-37.168
	c9.064-13.4,16.904-27.832,23.168-42.704c6.416-15.168,11.384-31.048,14.688-47.184c3.352-16.528,5.088-33.544,5.088-50.616
	c0-17.024-1.736-34.04-5.088-50.536C494.052,184.536,489.084,168.616,482.676,153.424z M251.228,465.784
	c-49.736,0-95.456-17.032-131.856-45.472c0.392-0.848,41.712-89.856,168.352-133.984c0.464-0.168,0.968-0.296,1.448-0.44
	c30.176,78.424,42.616,144.128,45.816,162.872C309.244,459.712,280.924,465.784,251.228,465.784z M371.108,429.16
	c-2.184-12.944-13.608-75.92-41.768-153.224c69.272-11.08,129.272,7.912,133.712,9.368
	C453.516,345.08,419.26,396.632,371.108,429.16z"/>
<g>
	<path style="fill:#BA3A7B;" d="M461.084,295.816c-11.688,55.288-44.672,102.736-89.976,133.344
		c-0.824-4.856-2.944-16.768-6.76-33.832c-11.528,7.392-23.592,13.984-36.104,19.752c3.496,15.64,5.648,27.376,6.728,33.688
		c-25.736,10.936-54.056,17.016-83.752,17.016c-40.248,0-77.768-11.296-109.952-30.624c-34.56-7.64-66.904-21.376-95.952-40.048
		c8.424,12.016,17.856,23.36,28.216,33.784c11.384,11.336,23.888,21.624,37.168,30.632c13.448,9.072,27.808,16.864,42.696,23.152
		c15.184,6.448,31.072,11.352,47.208,14.64c16.552,3.424,33.568,5.136,50.608,5.136c17.016,0,34.04-1.712,50.576-5.136
		c16.136-3.288,32.024-8.192,47.224-14.64c14.872-6.28,29.224-14.08,42.648-23.152c13.312-9.008,25.824-19.296,37.192-30.632
		c11.336-11.408,21.688-23.872,30.632-37.168c9.064-13.4,16.904-27.832,23.168-42.704c6.416-15.168,11.384-31.048,14.688-47.184
		c3.352-16.528,5.088-33.544,5.088-50.616c0-15.648-1.528-31.28-4.376-46.52C490.492,237.384,477.884,268.064,461.084,295.816z"/>
	<circle style="fill:#BA3A7B;" cx="215.996" cy="411.784" r="9"/>
	<circle style="fill:#BA3A7B;" cx="258.996" cy="424.816" r="4"/>
	<circle style="fill:#BA3A7B;" cx="282.996" cy="358.824" r="8"/>
	<circle style="fill:#BA3A7B;" cx="404.98" cy="368.816" r="4"/>
	<circle style="fill:#BA3A7B;" cx="423.996" cy="321.816" r="3"/>
	<circle style="fill:#BA3A7B;" cx="29.996" cy="476.824" r="3"/>
</g>
<g>
	<circle style="fill:#E64C87;" cx="36.996" cy="444.824" r="12"/>
	<circle style="fill:#E64C87;" cx="93.996" cy="299.784" r="7"/>
	<circle style="fill:#E64C87;" cx="302.996" cy="425.816" r="7"/>
	<circle style="fill:#E64C87;" cx="94.996" cy="346.816" r="6"/>
	<circle style="fill:#E64C87;" cx="204.98" cy="378.816" r="6"/>
	<circle style="fill:#E64C87;" cx="164.98" cy="414.824" r="6"/>
	<circle style="fill:#E64C87;" cx="128.996" cy="284.824" r="4"/>
	<circle style="fill:#E64C87;" cx="260.98" cy="390.824" r="4"/>
	<circle style="fill:#E64C87;" cx="72.996" cy="462.824" r="4"/>
</g>
</svg>